<svg width="150" height="150" viewBox="0 0 150 150" fill="none" xmlns="http://www.w3.org/2000/svg">
<path d="M106.25 106.25C108.854 106.25 111.067 105.338 112.888 103.513C114.713 101.692 115.625 99.4792 115.625 96.875C115.625 94.2708 114.713 92.0583 112.888 90.2375C111.067 88.4125 108.854 87.5 106.25 87.5C103.646 87.5 101.433 88.4125 99.6125 90.2375C97.7875 92.0583 96.875 94.2708 96.875 96.875C96.875 99.4792 97.7875 101.692 99.6125 103.513C101.433 105.338 103.646 106.25 106.25 106.25ZM106.25 125C109.479 125 112.448 124.244 115.156 122.731C117.865 121.223 120.052 119.219 121.719 116.719C119.427 115.365 116.979 114.323 114.375 113.594C111.771 112.865 109.062 112.5 106.25 112.5C103.438 112.5 100.729 112.865 98.125 113.594C95.5208 114.323 93.0729 115.365 90.7812 116.719C92.4479 119.219 94.6354 121.223 97.3438 122.731C100.052 124.244 103.021 125 106.25 125ZM106.25 137.5C97.6042 137.5 90.2354 134.454 84.1438 128.363C78.0479 122.267 75 114.896 75 106.25C75 97.6042 78.0479 90.2333 84.1438 84.1375C90.2354 78.0458 97.6042 75 106.25 75C114.896 75 122.267 78.0458 128.363 84.1375C134.454 90.2333 137.5 97.6042 137.5 106.25C137.5 114.896 134.454 122.267 128.363 128.363C122.267 134.454 114.896 137.5 106.25 137.5ZM75 137.5C60.5208 133.854 48.5688 125.546 39.1438 112.575C29.7146 99.6083 25 85.2083 25 69.375V31.25L75 12.5L125 31.25V66.7188C122.292 65.3646 119.246 64.3229 115.863 63.5938C112.475 62.8646 109.271 62.5 106.25 62.5C94.1667 62.5 83.8542 66.7708 75.3125 75.3125C66.7708 83.8542 62.5 94.1667 62.5 106.25C62.5 112.708 63.725 118.542 66.175 123.75C68.6208 128.958 71.7188 133.49 75.4688 137.344C75.3646 137.344 75.2875 137.371 75.2375 137.425C75.1833 137.475 75.1042 137.5 75 137.5Z" fill="#CCCCCC"/>
</svg>
